<mxfile host="app.diagrams.net" modified="2021-02-09T07:09:26.521Z" agent="5.0 (Windows NT 10.0; Win64; x64) AppleWebKit/537.36 (KHTML, like Gecko) Chrome/84.0.4147.89 Safari/537.36" etag="6AIYHR-7pehrmesRzBGi" version="14.3.0" type="github">
  <diagram id="OPYBwCuHe80ZtmwzVMBT" name="Page-1">
    <mxGraphModel dx="782" dy="354" grid="1" gridSize="40" guides="1" tooltips="1" connect="1" arrows="1" fold="1" page="1" pageScale="1" pageWidth="827" pageHeight="1169" math="0" shadow="1">
      <root>
        <mxCell id="0" />
        <mxCell id="1" parent="0" />
        <mxCell id="UUZuP4Qt1ZkiDsIrcnk2-2" value="" style="shape=cube;whiteSpace=wrap;html=1;boundedLbl=1;backgroundOutline=1;darkOpacity=0.05;darkOpacity2=0.1;size=70;" vertex="1" parent="1">
          <mxGeometry x="260" y="260" width="280" height="70" as="geometry" />
        </mxCell>
        <mxCell id="UUZuP4Qt1ZkiDsIrcnk2-3" value="" style="shape=cube;whiteSpace=wrap;html=1;boundedLbl=1;backgroundOutline=1;darkOpacity=0.05;darkOpacity2=0.1;size=30;" vertex="1" parent="1">
          <mxGeometry x="345" y="140" width="125" height="30" as="geometry" />
        </mxCell>
        <mxCell id="UUZuP4Qt1ZkiDsIrcnk2-4" value="" style="endArrow=none;dashed=1;html=1;entryX=0;entryY=0;entryDx=0;entryDy=0;entryPerimeter=0;exitX=0;exitY=0;exitDx=0;exitDy=0;exitPerimeter=0;" edge="1" parent="1" source="UUZuP4Qt1ZkiDsIrcnk2-2" target="UUZuP4Qt1ZkiDsIrcnk2-6">
          <mxGeometry width="50" height="50" relative="1" as="geometry">
            <mxPoint x="380" y="250" as="sourcePoint" />
            <mxPoint x="430" y="200" as="targetPoint" />
          </mxGeometry>
        </mxCell>
        <mxCell id="UUZuP4Qt1ZkiDsIrcnk2-5" value="" style="shape=cube;whiteSpace=wrap;html=1;boundedLbl=1;backgroundOutline=1;darkOpacity=0.05;darkOpacity2=0.1;size=40;" vertex="1" parent="1">
          <mxGeometry x="293.75" y="170" width="212.5" height="44" as="geometry" />
        </mxCell>
        <mxCell id="UUZuP4Qt1ZkiDsIrcnk2-6" value="" style="shape=cube;whiteSpace=wrap;html=1;boundedLbl=1;backgroundOutline=1;darkOpacity=0.05;darkOpacity2=0.1;size=40;" vertex="1" parent="1">
          <mxGeometry x="381" y="90" width="65" height="20" as="geometry" />
        </mxCell>
        <mxCell id="UUZuP4Qt1ZkiDsIrcnk2-11" value="" style="endArrow=none;dashed=1;html=1;exitX=0;exitY=0;exitDx=70;exitDy=70;exitPerimeter=0;entryX=0;entryY=0;entryDx=20;entryDy=20;entryPerimeter=0;" edge="1" parent="1" source="UUZuP4Qt1ZkiDsIrcnk2-2" target="UUZuP4Qt1ZkiDsIrcnk2-6">
          <mxGeometry width="50" height="50" relative="1" as="geometry">
            <mxPoint x="540" y="240" as="sourcePoint" />
            <mxPoint x="590" y="190" as="targetPoint" />
          </mxGeometry>
        </mxCell>
        <mxCell id="UUZuP4Qt1ZkiDsIrcnk2-12" value="" style="endArrow=none;dashed=1;html=1;exitX=0;exitY=0;exitDx=280;exitDy=70;exitPerimeter=0;entryX=0;entryY=0;entryDx=65;entryDy=20;entryPerimeter=0;" edge="1" parent="1" source="UUZuP4Qt1ZkiDsIrcnk2-2" target="UUZuP4Qt1ZkiDsIrcnk2-6">
          <mxGeometry width="50" height="50" relative="1" as="geometry">
            <mxPoint x="540" y="240" as="sourcePoint" />
            <mxPoint x="590" y="190" as="targetPoint" />
          </mxGeometry>
        </mxCell>
        <mxCell id="UUZuP4Qt1ZkiDsIrcnk2-13" value="" style="endArrow=none;dashed=1;html=1;exitX=0;exitY=0;exitDx=210;exitDy=0;exitPerimeter=0;entryX=0;entryY=0;entryDx=45;entryDy=0;entryPerimeter=0;" edge="1" parent="1" source="UUZuP4Qt1ZkiDsIrcnk2-2" target="UUZuP4Qt1ZkiDsIrcnk2-6">
          <mxGeometry width="50" height="50" relative="1" as="geometry">
            <mxPoint x="540" y="240" as="sourcePoint" />
            <mxPoint x="590" y="190" as="targetPoint" />
          </mxGeometry>
        </mxCell>
      </root>
    </mxGraphModel>
  </diagram>
</mxfile>
